/* XPM */
static char * wall1_xpm[] = {
"14 14 139 2",
"  	c None",
". 	c #080A11",
"+ 	c #090B14",
"@ 	c #0A0C17",
"# 	c #0B0F1A",
"$ 	c #0C101C",
"% 	c #0D101C",
"& 	c #0D101D",
"* 	c #0E111E",
"= 	c #14131D",
"- 	c #19162C",
"; 	c #171D34",
"> 	c #1E1B36",
", 	c #211D3A",
"' 	c #221E3C",
") 	c #373737",
"! 	c #30303A",
"~ 	c #3C3C3C",
"{ 	c #262B4F",
"] 	c #2D2750",
"^ 	c #2C3056",
"/ 	c #342F5E",
"( 	c #3B3B47",
"_ 	c #33375E",
": 	c #39376B",
"< 	c #453E7C",
"[ 	c #464646",
"} 	c #434048",
"| 	c #4E4E4E",
"1 	c #494C59",
"2 	c #545454",
"3 	c #5B5B5B",
"4 	c #434466",
"5 	c #454765",
"6 	c #424862",
"7 	c #454964",
"8 	c #494B66",
"9 	c #4D4E6A",
"0 	c #45467D",
"a 	c #4C4672",
"b 	c #49427F",
"c 	c #59567F",
"d 	c #606060",
"e 	c #4A4A84",
"f 	c #4B4C83",
"g 	c #4D4D87",
"h 	c #52528A",
"i 	c #5E5789",
"j 	c #5B5A8F",
"k 	c #5C5993",
"l 	c #5C5C90",
"m 	c #68688A",
"n 	c #6D6B8E",
"o 	c #68649B",
"p 	c #696699",
"q 	c #6F699D",
"r 	c #716A9F",
"s 	c #7A769C",
"t 	c #736FA0",
"u 	c #7471A3",
"v 	c #7972A4",
"w 	c #7875A6",
"x 	c #7B77A6",
"y 	c #7D79A6",
"z 	c #7F7FA5",
"A 	c #3BFD7F",
"B 	c #817EA6",
"C 	c #817AAA",
"D 	c #83838D",
"E 	c #91919B",
"F 	c #999999",
"G 	c #8383A3",
"H 	c #8080A7",
"I 	c #8683A3",
"J 	c #8582A7",
"K 	c #8783A7",
"L 	c #8280A9",
"M 	c #8581AA",
"N 	c #8781AB",
"O 	c #8682AE",
"P 	c #8585AF",
"Q 	c #8686AE",
"R 	c #8A87A8",
"S 	c #8A86AF",
"T 	c #8F8CAD",
"U 	c #8A86B2",
"V 	c #8888B0",
"W 	c #8E8AB1",
"X 	c #918DAF",
"Y 	c #908AB1",
"Z 	c #938DB1",
"` 	c #908EB4",
" .	c #928EB5",
"..	c #9E9BA5",
"+.	c #9997B7",
"@.	c #9894B9",
"#.	c #9A96B9",
"$.	c #9A9CB6",
"%.	c #9C9BB4",
"&.	c #9E9ABB",
"*.	c #9F9DBD",
"=.	c #A2A2B2",
"-.	c #A5A5B8",
";.	c #ACAABE",
">.	c #B3B3B3",
",.	c #B5B5B5",
"'.	c #B4B2BD",
").	c #B6B6BA",
"!.	c #B9B9BA",
"~.	c #A19DC0",
"{.	c #A6A7C1",
"].	c #A7A6C1",
"^.	c #ABA7C3",
"/.	c #A9A7C5",
"(.	c #ABA8C4",
"_.	c #AFADC8",
":.	c #B2ADCB",
"<.	c #B5AFCA",
"[.	c #B1B1C5",
"}.	c #B5B1CD",
"|.	c #B5B3CC",
"1.	c #B5B4C9",
"2.	c #B7B5CF",
"3.	c #BAB4CF",
"4.	c #C5BFCF",
"5.	c #C7C5CD",
"6.	c #C7C4D7",
"7.	c #C5C4D9",
"8.	c #CBC8DB",
"9.	c #D1D0D7",
"0.	c #D6D4DB",
"a.	c #DFDFDF",
"b.	c #DFDFE9",
"c.	c #E1E1E7",
"d.	c #E3E3ED",
"e.	c #E4E3EC",
"f.	c #ECECEC",
"g.	c #F2F2F6",
"h.	c #F8F8F8",
"    ,.a.[         2 F       ",
"  ,.z P G !     3 ;.M D     ",
">.H h h Q (   d -.w r X D   ",
"4.j e e l m E =.L q v S Z ] ",
"} _ 0 e g p ` V u C U B 4 - ",
"  $ ^ f k o t y O  .J 5 #   ",
"    * n x x N Y #.R 8 %     ",
"      ..&.W @.~.T 9 &       ",
"    | '.^.*./.}.%.1         ",
"  [ 5.:.].+.(.6.b.!.)       ",
"~ 0.<._.$.c s 7.d.g.).=     ",
"f.3.2.{.7 @ ' I c.h.8.a     ",
"9.1.[.6 +     , K e.|./     ",
"i b { .         > < : ;     "};
