/* XPM */
static char * flag_bad_xpm[] = {
"12 11 4 1",
" 	c None",
".	c #0019FF",
"+	c #FE0204",
"@	c #000000",
".     +@   .",
"..  +++@ ...",
"  ..+++@..  ",
"+++..++..   ",
"  +++...    ",
"    +...    ",
"    ..@..   ",
"   .. @@.   ",
"  ..  @@ .. ",
" .. @@@@@@..",
"..@@@@@@@@@."};
