/* XPM */
static char * smil_worried_xpm[] = {
"32 32 262 2",
"  	c None",
". 	c #777672",
"+ 	c #565654",
"@ 	c #454544",
"# 	c #3B3A34",
"$ 	c #666234",
"% 	c #AA9E40",
"& 	c #E8D254",
"* 	c #E8CE3D",
"= 	c #DECC44",
"- 	c #AE9E44",
"; 	c #7A723C",
"> 	c #5A563C",
", 	c #6A6A6C",
"' 	c #9E9E9C",
") 	c #000003",
"! 	c #020200",
"~ 	c #727274",
"{ 	c #A9A9AA",
"] 	c #343431",
"^ 	c #1C1C0C",
"/ 	c #221E04",
"( 	c #36321C",
"_ 	c #5A4E0C",
": 	c #8E822C",
"< 	c #887A34",
"[ 	c #7A6E24",
"} 	c #4C4620",
"| 	c #6A6654",
"1 	c #524E44",
"2 	c #242210",
"3 	c #17160E",
"4 	c #161208",
"5 	c #1D1D1C",
"6 	c #181400",
"7 	c #010100",
"8 	c #030300",
"9 	c #000000",
"0 	c #242424",
"a 	c #2B2B2C",
"b 	c #5D5D5C",
"c 	c #000001",
"d 	c #4C4C4A",
"e 	c #8E7E2C",
"f 	c #56522C",
"g 	c #ECD62C",
"h 	c #F9DB37",
"i 	c #665E2C",
"j 	c #F9D100",
"k 	c #A98A1A",
"l 	c #D5BE24",
"m 	c #F9DE25",
"n 	c #D8C234",
"o 	c #A28E3C",
"p 	c #B28D00",
"q 	c #FDD600",
"r 	c #FED600",
"s 	c #C0B248",
"t 	c #3D3611",
"u 	c #6E6A4C",
"v 	c #FAE22A",
"w 	c #514D34",
"x 	c #CAAA4C",
"y 	c #CC9B00",
"z 	c #F9D000",
"A 	c #F6DA26",
"B 	c #ECD640",
"C 	c #DAC64C",
"D 	c #EAD674",
"E 	c #F5E367",
"F 	c #F5E247",
"G 	c #FAE23E",
"H 	c #F1DA3A",
"I 	c #DEC644",
"J 	c #D6BE44",
"K 	c #DDBE24",
"L 	c #D5B81E",
"M 	c #CBA200",
"N 	c #BB8B00",
"O 	c #FBEB72",
"P 	c #FAE654",
"Q 	c #F5EA9F",
"R 	c #F6E384",
"S 	c #E4C32C",
"T 	c #DEC228",
"U 	c #DDB92D",
"V 	c #CBAE37",
"W 	c #B28400",
"X 	c #ECC400",
"Y 	c #F5D638",
"Z 	c #FEEE8C",
"` 	c #FEF298",
" .	c #C6BA64",
"..	c #665E14",
"+.	c #665A0C",
"@.	c #C6B21F",
"#.	c #524E2C",
"$.	c #A69E60",
"%.	c #D2B229",
"&.	c #CBA72D",
"*.	c #B48C00",
"=.	c #8E7700",
"-.	c #FAEE9C",
";.	c #8E864C",
">.	c #0D0D04",
",.	c #8A7E14",
"'.	c #BEAA24",
").	c #F6E69C",
"!.	c #D2B234",
"~.	c #CAA22C",
"{.	c #B48D00",
"].	c #AB8000",
"^.	c #F9CA00",
"/.	c #FBEE81",
"(.	c #2B260C",
"_.	c #A7962F",
":.	c #EEDA2C",
"<.	c #F0E280",
"[.	c #D2AE24",
"}.	c #C39E32",
"|.	c #F5D624",
"1.	c #F9EC93",
"2.	c #EADC5C",
"3.	c #CBBA37",
"4.	c #E6D658",
"5.	c #DBCA54",
"6.	c #C6AE54",
"7.	c #DACE84",
"8.	c #EED254",
"9.	c #EACA26",
"0.	c #E3C223",
"a.	c #CBA622",
"b.	c #BE9E2C",
"c.	c #B18E25",
"d.	c #B09E68",
"e.	c #F0CE3A",
"f.	c #F5D239",
"g.	c #FAE634",
"h.	c #FAEA54",
"i.	c #EADE8C",
"j.	c #CEC264",
"k.	c #C5B338",
"l.	c #E4C622",
"m.	c #C6A62C",
"n.	c #BA961F",
"o.	c #B28A1C",
"p.	c #AA924C",
"q.	c #F2CE2C",
"r.	c #FDF5B4",
"s.	c #F2EAB0",
"t.	c #D6CA64",
"u.	c #A89014",
"v.	c #A18E1C",
"w.	c #C6AA1C",
"x.	c #DCB823",
"y.	c #A68638",
"z.	c #EECA38",
"A.	c #F2D226",
"B.	c #FEFACC",
"C.	c #E2D67C",
"D.	c #867614",
"E.	c #5C5214",
"F.	c #B29A14",
"G.	c #E2BE21",
"H.	c #D7B229",
"I.	c #D2AA2C",
"J.	c #B4961C",
"K.	c #A17E24",
"L.	c #DECE64",
"M.	c #FDF6C9",
"N.	c #7E720C",
"O.	c #4E460C",
"P.	c #928218",
"Q.	c #CDAA21",
"R.	c #AE8624",
"S.	c #9A7A34",
"T.	c #EAC644",
"U.	c #EAC530",
"V.	c #EECE26",
"W.	c #EED224",
"X.	c #E2DA9C",
"Y.	c #EEE6B4",
"Z.	c #706210",
"`.	c #9E8A14",
" +	c #BC9A21",
".+	c #9C7620",
"++	c #E2C654",
"@+	c #B8AC6C",
"#+	c #BEB270",
"$+	c #D2AA24",
"%+	c #C4A121",
"&+	c #BC9220",
"*+	c #A07A20",
"=+	c #9A8240",
"-+	c #DECA74",
";+	c #E5BE2F",
">+	c #A29224",
",+	c #927E14",
"'+	c #C0A618",
")+	c #A18218",
"!+	c #9D8C62",
"~+	c #DAAD00",
"{+	c #E2BA2C",
"]+	c #C59924",
"^+	c #896100",
"/+	c #D1A000",
"(+	c #D9AF00",
"_+	c #EAC621",
":+	c #F5DE57",
"<+	c #EED239",
"[+	c #CCAF1C",
"}+	c #A88220",
"|+	c #A9861D",
"1+	c #8F6300",
"2+	c #7F5600",
"3+	c #F3DA56",
"4+	c #F4DE64",
"5+	c #DEC61C",
"6+	c #9A8721",
"7+	c #4A3E0F",
"8+	c #443A0C",
"9+	c #906E14",
"0+	c #9A7E14",
"a+	c #907315",
"b+	c #987A18",
"c+	c #8C5F00",
"d+	c #625600",
"e+	c #D6AE2C",
"f+	c #C2AE3C",
"g+	c #362E0C",
"h+	c #887214",
"i+	c #7D6314",
"j+	c #876B14",
"k+	c #966E18",
"l+	c #825800",
"m+	c #C49700",
"n+	c #CD9E00",
"o+	c #B2921C",
"p+	c #765D14",
"q+	c #8B6619",
"r+	c #664800",
"s+	c #C49500",
"t+	c #96731E",
"u+	c #714B00",
"v+	c #B88900",
"w+	c #BE8A00",
"x+	c #CAA224",
"y+	c #9A8214",
"z+	c #846314",
"A+	c #7B5D14",
"B+	c #704F00",
"C+	c #7A5600",
"D+	c #B48400",
"E+	c #815500",
"F+	c #9C7400",
"G+	c #AC7800",
"H+	c #AA7D00",
"I+	c #A67E1E",
"J+	c #7D5F00",
"K+	c #906C00",
"L+	c #9D7100",
"M+	c #9C6E00",
"              . + @ # # $ % & * * = - ; > + + + , '             ",
"        ) ! ~ { . ] ^ ^ / ( _ : < [ } | 1 2 3 4 5 ] @ , 6       ",
"      7 8 9 , { ~ ] 5 5 5 0 0 a a a # ~ b a 5 5 5 5 0 c 9       ",
"      7 8 0 ] d # 0 5 5 0 0 a e e a 0 ] a 0 0 0 0 a a   !       ",
"      7   } 2 0 5 5 0 0 0 0 f g h > 0 5 5 0 0 0 0 a i   7       ",
"      6 j k } 4 5 5 0 0 a ] l m m n # 0 0 5 0 0 a a o p 6       ",
"      q r h s i t 0 ] @ u % m m v m s w a 0 a ] w < x y p       ",
"      z r h A B C C D E F G v m m m A H g B * I J K L M N       ",
"    r r h m h m m F O O P v v m m m m m E Q R & S T U V y W     ",
"  X z Y h h m A G O Z `  ...+.@.v v T ; #.$.Q R * S L %.&.*.=.  ",
"  z z Y Y A m A F Z -.` ;.>.>.,.v v '.4 >.#.Q ).* S K !.~.{.].  ",
"  ^.z Y h h A m v /.` ` $.(.(._.:.g @.t 4 ; ).<.* S U [.x }.].  ",
"X ^.Y |.|.A A A m P O 1.2.3.3.4.2.5.l '.6.7.R 8.9.0.K %.a.b.c.d.",
"8.e.f.Y |.h A m m m v g.g.h././.i.j.k.@.l @.l 9.l.T U %.m.n.o.p.",
"e.f.q.Y |.A A A m v m m F /.` r.s.t.s _.u.v.w.K 0.K x.[.m.n.y.y.",
"z.z.f.A.f.|.|.A A m m :.4.-.B.B.r.C.s D.E...F.L T G.H.I.}.J.o.K.",
"z.z.z.A.A.|.A A A m :.g L.s.M.M.r.i.@.N.O.O.P.L T K H.Q.b.c.R.S.",
"T.U.z.V.q.A.W.|.A A m * 5.X.Y.s.1.2.P.+.Z.E.`.L K x.[.m. +c.K..+",
"++U.U.z.9.A.A.A.|.A m :.= j.@+#+s v._ Z.u.`.w.G.x.L $+%+&+R.*+=+",
"-+;+;+S 9.9.V.W.W.|.|.:.:.5.s _.>+,+D.'+0.x.0.G.x.Q.%+ +c.)+.+!+",
"  ~+{+;+0.9.9.V.V.W.A.|.:.H & n 3.l T V.V.l.G.L '+]+n.c.R.*+^+  ",
"  /+(+{+G.0._+9.V.V.W.Y :+E :+H g <+W.9.0.%+[+Q.J.`.}+|+K.1+2+  ",
"  *./+H.x.{+G.0.9.9.<+3+4+2.3+B e.5+6++.7+8+9+ +0+a+a+b+.+c+d+  ",
"    y /+e+x.x.G.G.l.* 8.& f+_.Z.g+3 / (.7+h+0+6+9+i+j+k+^+l+    ",
"    *.m+n+[.H.x.x.G.S P.7+4 8+t +.o+H.[+Q.u.k a+i+p+q+l+2+r+    ",
"      N s+a.$+$+$+[.H.(.p+k [+a.%+F.J.o+u.)+t+i+p+p+q+2+u+      ",
"        v+w+x+a.x+%+x+'+%+n.J.k y+a+a+a+a+j+z+p+p+i+2+l+        ",
"          v+w+w+ +]+n.c.k )+b+a+j+j+i+i+A+Z.p+A+B+C+l+          ",
"            W w+D+c.c.|+)+a+a+9+i+i+i+i+i+z+A+C+E+u+            ",
"              F+G+H+H+}+)+I+.+a+h+9+z+z+q+E+J+E+r+              ",
"                  K+L+M+I+I+.+.+t+a+t+9+l+2+r+                  ",
"                        - y.I+t+k+t+K.!+                        "};
