/* XPM */
static char * smiley_win_xpm[] = {
"32 32 262 2",
"  	c None",
". 	c #EAD977",
"+ 	c #EAD858",
"@ 	c #EAD644",
"# 	c #EED137",
"$ 	c #E9CF36",
"% 	c #E2CA3C",
"& 	c #E0C854",
"* 	c #D8CA64",
"= 	c #FCD400",
"- 	c #F9D600",
"; 	c #F2D83C",
"> 	c #F2D62D",
", 	c #E2C634",
"' 	c #E0BC00",
") 	c #D9B600",
"! 	c #CBB300",
"~ 	c #FFDA00",
"{ 	c #F9DE3D",
"] 	c #F6DA2C",
"^ 	c #F7DA40",
"/ 	c #F6D630",
"( 	c #E7CA30",
"_ 	c #D8AF00",
": 	c #F8D400",
"< 	c #FAE229",
"[ 	c #FADE31",
"} 	c #F2DA2C",
"| 	c #EBD62F",
"1 	c #EED22A",
"2 	c #EDC93F",
"3 	c #DDC237",
"4 	c #C59F00",
"5 	c #B99200",
"6 	c #EACE2C",
"7 	c #E4C22C",
"8 	c #D3B500",
"9 	c #C8A000",
"0 	c #FEDB00",
"a 	c #F8DE22",
"b 	c #DCBC32",
"c 	c #B78C00",
"d 	c #D6B634",
"e 	c #C29B00",
"f 	c #807638",
"g 	c #645614",
"h 	c #534A14",
"i 	c #4E4610",
"j 	c #4C4216",
"k 	c #84761C",
"l 	c #D6BD21",
"m 	c #E2CA24",
"n 	c #9E8E1C",
"o 	c #7A6A14",
"p 	c #746414",
"q 	c #6C6214",
"r 	c #8B7917",
"s 	c #B8A21C",
"t 	c #C4A62C",
"u 	c #BB9B00",
"v 	c #BC9200",
"w 	c #F4C600",
"x 	c #EEBD00",
"y 	c #756A37",
"z 	c #6E6A4C",
"A 	c #94928C",
"B 	c #6C6858",
"C 	c #363418",
"D 	c #2A2204",
"E 	c #221E08",
"F 	c #322E0C",
"G 	c #544E10",
"H 	c #8C7E14",
"I 	c #E2CE24",
"J 	c #DAC61C",
"K 	c #D0B61C",
"L 	c #56522C",
"M 	c #3E3A24",
"N 	c #1A1604",
"O 	c #524611",
"P 	c #9B821F",
"Q 	c #997800",
"R 	c #8D7000",
"S 	c #EFC900",
"T 	c #252212",
"U 	c #242424",
"V 	c #868284",
"W 	c #D0D0C8",
"X 	c #343433",
"Y 	c #151514",
"Z 	c #1D1D1C",
"` 	c #2B2B2C",
" .	c #3E3E3C",
"..	c #7E7A74",
"+.	c #44423C",
"@.	c #7E5F00",
"#.	c #917400",
"$.	c #FACA00",
"%.	c #525250",
"&.	c #8A8A87",
"*.	c #5A5A5C",
"=.	c #4B4A46",
"-.	c #B98800",
";.	c #A58300",
">.	c #F5D200",
",.	c #6E5E14",
"'.	c #B2A63C",
").	c #AF9221",
"!.	c #B99A24",
"~.	c #BE9A22",
"{.	c #AD8300",
"].	c #F2CE34",
"^.	c #F6D23A",
"/.	c #5C562E",
"(.	c #FAE65C",
"_.	c #EADE5C",
":.	c #56523C",
"<.	c #72622C",
"[.	c #A38D37",
"}.	c #C6A634",
"|.	c #B18E25",
"1.	c #B09E68",
"2.	c #EED25C",
"3.	c #453C0C",
"4.	c #CEC264",
"5.	c #FAEE94",
"6.	c #EADE7C",
"7.	c #B2A654",
"8.	c #D1AE28",
"9.	c #AF8A1C",
"0.	c #AA924C",
"a.	c #EECE44",
"b.	c #E9C62E",
"c.	c #C4AA2C",
"d.	c #746E48",
"e.	c #FEF6B4",
"f.	c #F4EAA0",
"g.	c #DACE74",
"h.	c #665E3C",
"i.	c #5C5840",
"j.	c #322A0C",
"k.	c #A68634",
"l.	c #3C3608",
"m.	c #3A3624",
"n.	c #928A44",
"o.	c #FDF6C9",
"p.	c #FCF2B0",
"q.	c #E4D878",
"r.	c #C4B438",
"s.	c #4E4A39",
"t.	c #DBB628",
"u.	c #A47E20",
"v.	c #BEA224",
"w.	c #6E663C",
"x.	c #C6AE20",
"y.	c #F1E9B1",
"z.	c #EADE8C",
"A.	c #7E720C",
"B.	c #E3BE29",
"C.	c #5A4E24",
"D.	c #7A6214",
"E.	c #92763C",
"F.	c #9A7A34",
"G.	c #9E9A84",
"H.	c #76724C",
"I.	c #5A4A0C",
"J.	c #928016",
"K.	c #E1DAA1",
"L.	c #93761A",
"M.	c #5E4E0C",
"N.	c #6E5A14",
"O.	c #C39A1E",
"P.	c #9A7722",
"Q.	c #EAC234",
"R.	c #EECA30",
"S.	c #B2AEA0",
"T.	c #D8D7CF",
"U.	c #B6AE8C",
"V.	c #7E7A5C",
"W.	c #968E64",
"X.	c #9D936C",
"Y.	c #A69E6C",
"Z.	c #A69A54",
"`.	c #7A6E14",
" +	c #4A463C",
".+	c #BB961F",
"++	c #AC8620",
"@+	c #9E823C",
"#+	c #DECA74",
"$+	c #E6E6E4",
"%+	c #C3C2BB",
"&+	c #BABAA4",
"*+	c #605E56",
"=+	c #4E4E44",
"-+	c #7F7F7D",
";+	c #787874",
">+	c #A6821F",
",+	c #9E761C",
"'+	c #9E8E60",
")+	c #D8AB00",
"!+	c #E1DEDC",
"~+	c #EBEBE6",
"{+	c #E3E2E1",
"]+	c #ADADAC",
"^+	c #A3A3A1",
"/+	c #807E6C",
"(+	c #898682",
"_+	c #C5A221",
":+	c #A17A1F",
"<+	c #885E00",
"[+	c #D6A300",
"}+	c #DEBA24",
"|+	c #B1961C",
"1+	c #BBBBB9",
"2+	c #8C6300",
"3+	c #825600",
"4+	c #D2A200",
"5+	c #DAB230",
"6+	c #D6C21C",
"7+	c #867E64",
"8+	c #C9C7C4",
"9+	c #B6961C",
"0+	c #C59E24",
"a+	c #BA921C",
"b+	c #5E4200",
"c+	c #CD9D00",
"d+	c #D6B326",
"e+	c #747058",
"f+	c #B69222",
"g+	c #8F6100",
"h+	c #C69900",
"i+	c #D6AE27",
"j+	c #BE9E2C",
"k+	c #815400",
"l+	c #5B4800",
"m+	c #BE9000",
"n+	c #CCA624",
"o+	c #D2AA28",
"p+	c #A29E94",
"q+	c #B78E1F",
"r+	c #744E00",
"s+	c #CAA226",
"t+	c #866E14",
"u+	c #7A725C",
"v+	c #A48614",
"w+	c #AC811E",
"x+	c #BD8E00",
"y+	c #885F00",
"z+	c #BB8600",
"A+	c #B38600",
"B+	c #C29624",
"C+	c #9C7800",
"D+	c #AF8000",
"E+	c #977300",
"F+	c #A37100",
"G+	c #A27600",
"H+	c #9A721C",
"I+	c #936E1A",
"J+	c #694E00",
"K+	c #A68A24",
"L+	c #967220",
"M+	c #A2925C",
"                        . + @ # $ % & *                         ",
"                    = - ; ; > @ $ $ % , ' ) !                   ",
"                ~ ~ ~ { ] ^ / > # # $ ( % ) ' _                 ",
"            : ~ ~ < { ] [ ] ] } } | 1 $ ( 2 3 ) 4 5             ",
"          : ~ = { < { [ [ [ [ ] ] > 1 | 1 6 , 7 _ 8 9           ",
"        = 0 ^ [ [ [ < [ a a a a a } ] 1 1 6 ( , b b 9 c         ",
"        = { [ { [ [ < < < a [ a a ] ] > > 6 6 ( 3 b d e c       ",
"      = - ^ 3 f g h i j k l < a a a m n o p p q r s t u v       ",
"    w x t y z A B C D E F G H I J K g L M N N N N O g P Q R     ",
"    S k T U V W A X Y Y Y Z T ` ` `  .A ..X Z Y Z Y U ` +.@.#.  ",
"  $.$.b i U %.&.*.X U U U U ` ` ` X  .%.=.U U U U ` ` ` y -.;.  ",
"  >.; > ,.U ` X ` U Z U U U ` '.'.` Z U Z U U U U U ` ).!.~.{.  ",
". ].^.> s h T Z Z Z Z U U U /.(._.:.U U Z U U U U ` <.[.}.~.|.1.",
"2.].> ^.} k 3.Y Z Z U U ` ` 4.5.6.7.X Z Z Z U U ` U [.8.}.~.9.0.",
"a.].b.c./ | o T Z Z U U ` d.e.e.f.g.h.X U U U ` X i.c.P j.9.k.k.",
"2 7 g l.> / } l q U U m.n.5.o.o.p.q.r./. .X  .s.f t.t.u.F j 9.u.",
"2 v.j w.O r x.} ] } a 1 g.y.o.o.p.z.r.A.h j H K B.v.p C.D.E.k.F.",
"2 b.b.!.w.G.H.I.J.s l | * K.y.y.f.+ J.g ,.g L.r M.j :.N.O.9.u.P.",
"& Q.b.R.p S.T.T.U.V.w.i f W.X.Y.Z.`.3.l.3.D F s. +*.j )..+++F.@+",
"#+B.Q.7 b.3.T.$+$+..%+$+W &+&.*+*+=++.*+=+-+;+=.+.s.L.O.9.>+,+'+",
"  )+B.B.7 l /.!+~+;+%+$+{+!+]+%.]+^+^+/+X (+;+=.=.M._+.+++:+<+  ",
"  [+[+}+B.B.|+/+~+;+%+$+$+!+-+;+%+1+]+-+` (+-+%.j _+.+|.u.2+3+  ",
"  5 4+5+}+B.6+|+7+-+%+~+$+!+-+;+8+1+]+-+M &.-+j 9+0+a+++,+<+b+  ",
"    c+c+d+t.t.}+|+e+%+$+$+{+-+;+8+1+]+(+ .(+j ).O.f+++u.g+3+    ",
"    5 h+c+i+d+t.}+).d.!+$+{+;+;+%+1+]+V %.O .+j+a+9.u.2+k+l+    ",
"      v m+n+o+8.d+d+!.l.p+T.-+;+%+1+^+e+I.|+~.q+++u.,+3+r+      ",
"        -.m+s+n+o+8.8.i+t+C *+z u+i.3.t+O.a+q+v+w+,+3+3+        ",
"          x+x+m+0+s+n+n+n+s+v+r L.v+.+9+q+9.w+:+y+3+3+          ",
"            -.z+A+B+.+.+O.O.B+.+a+a+9.++v+:+,+<+3+r+            ",
"              C+D+D+A+q+q+q+|.9.9.w+w+u.,+g+<+k+l+              ",
"                  E+F+G+w+w+w+u.:+,+H+I+<+k+J+                  ",
"                        1.K+u.H+L+P.P M+#.                      "};
