/* XPM */
static char * smil_sad_xpm[] = {
"32 32 255 2",
"  	c None",
". 	c #E8DA74",
"+ 	c #E8D658",
"@ 	c #ECD63C",
"# 	c #ECD236",
"$ 	c #E6CE3C",
"% 	c #E5CA37",
"& 	c #DECA54",
"* 	c #D6CA6C",
"= 	c #F4D400",
"- 	c #FAD800",
"; 	c #FDD500",
"> 	c #F5D637",
", 	c #F8DA38",
"' 	c #E2C634",
") 	c #E0BC00",
"! 	c #DEB200",
"~ 	c #C6AF00",
"{ 	c #FFDB05",
"] 	c #FADE37",
"^ 	c #F0DA3A",
"/ 	c #EDD228",
"( 	c #EACE34",
"_ 	c #D8B600",
": 	c #D8B200",
"< 	c #F6DA27",
"[ 	c #F0DA2C",
"} 	c #C59F00",
"| 	c #FAE223",
"1 	c #F9DE25",
"2 	c #F4D627",
"3 	c #EECA31",
"4 	c #E3C22D",
"5 	c #C8A100",
"6 	c #C49F00",
"7 	c #FAD200",
"8 	c #EBD62C",
"9 	c #E5CA27",
"0 	c #DCBE31",
"a 	c #DCBA2E",
"b 	c #B9A219",
"c 	c #EACB27",
"d 	c #DCC236",
"e 	c #D2B22E",
"f 	c #C69D00",
"g 	c #B28D00",
"h 	c #3A360C",
"i 	c #766A11",
"j 	c #9C8A17",
"k 	c #020204",
"l 	c #605610",
"m 	c #161604",
"n 	c #C9B21C",
"o 	c #C1AA1F",
"p 	c #655A11",
"q 	c #CAAE1F",
"r 	c #C39500",
"s 	c #F9D000",
"t 	c #0D0C04",
"u 	c #534A0C",
"v 	c #151204",
"w 	c #A69614",
"x 	c #CAB61C",
"y 	c #060604",
"z 	c #CAAA2C",
"A 	c #CEB23C",
"B 	c #C29B00",
"C 	c #BC8D00",
"D 	c #4C420C",
"E 	c #C2AE14",
"F 	c #BAA61C",
"G 	c #EFCE2B",
"H 	c #D8B22A",
"I 	c #CBA62E",
"J 	c #B28400",
"K 	c #917400",
"L 	c #F9CA00",
"M 	c #665E14",
"N 	c #2A2204",
"O 	c #9E8E14",
"P 	c #0A0604",
"Q 	c #160E04",
"R 	c #DEC228",
"S 	c #D3AE26",
"T 	c #CAA22C",
"U 	c #B48A00",
"V 	c #A57B00",
"W 	c #363204",
"X 	c #CCBA24",
"Y 	c #FAEA4C",
"Z 	c #F4E244",
"` 	c #7A6E14",
" .	c #423A0C",
"..	c #E6CE1C",
"+.	c #261E07",
"@.	c #D1B221",
"#.	c #CAAA4C",
"$.	c #BD9E28",
"%.	c #AF8200",
"&.	c #EAD674",
"*.	c #F5D239",
"=.	c #FAE65C",
"-.	c #EADC5C",
";.	c #DCCA4C",
">.	c #201604",
",.	c #927E14",
"'.	c #E3C222",
").	c #D8BA1F",
"!.	c #CBA622",
"~.	c #B18E27",
"{.	c #AE9E6C",
"].	c #EED25C",
"^.	c #FCEE84",
"/.	c #EADE87",
"(.	c #CEC264",
"_.	c #C6AE20",
":.	c #E5BE2F",
"<.	c #DEBC22",
"[.	c #B99621",
"}.	c #AA924C",
"|.	c #EECB3F",
"1.	c #FCF2B0",
"2.	c #FEF6B4",
"3.	c #F4EAA0",
"4.	c #DACE74",
"5.	c #BEAE3C",
"6.	c #D8BE1C",
"7.	c #E2BE23",
"8.	c #D8B629",
"9.	c #C6A62C",
"0.	c #C19624",
"a.	c #AE8A1C",
"b.	c #A68634",
"c.	c #FDF6C9",
"d.	c #E2D67C",
"e.	c #C0B240",
"f.	c #867610",
"g.	c #5E520C",
"h.	c #6E5E0C",
"i.	c #B09814",
"j.	c #CDAA22",
"k.	c #C49E2A",
"l.	c #AA8624",
"m.	c #A57E22",
"n.	c #F2D226",
"o.	c #DECE64",
"p.	c #F2EAB0",
"q.	c #FEFACC",
"r.	c #EEE27C",
"s.	c #C6B434",
"t.	c #7E720C",
"u.	c #4E460C",
"v.	c #D0B61C",
"w.	c #BD9A26",
"x.	c #B89224",
"y.	c #9C761F",
"z.	c #EAC644",
"A.	c #EAC530",
"B.	c #EEE6B4",
"C.	c #928218",
"D.	c #6E620C",
"E.	c #9A7A34",
"F.	c #E2C654",
"G.	c #DECE44",
"H.	c #B8B06C",
"I.	c #564E14",
"J.	c #A3921C",
"K.	c #A28E14",
"L.	c #E2BA2C",
"M.	c #D2AA29",
"N.	c #9C7A24",
"O.	c #9A8244",
"P.	c #DECA74",
"Q.	c #EAC624",
"R.	c #A69634",
"S.	c #BEA614",
"T.	c #A6821E",
"U.	c #9E8E60",
"V.	c #DBA800",
"W.	c #9E8617",
"X.	c #8A5D00",
"Y.	c #D4A600",
"Z.	c #DEB630",
"`.	c #361E14",
" +	c #3D2614",
".+	c #3A2A0C",
"++	c #462A14",
"@+	c #34220C",
"#+	c #3E320C",
"$+	c #CAA224",
"%+	c #B68E24",
"&+	c #906400",
"*+	c #825700",
"=+	c #B48C00",
"-+	c #A24A44",
";+	c #B44A4C",
">+	c #A34544",
",+	c #4E2224",
"'+	c #7A3234",
")+	c #7E3E2C",
"!+	c #9A7E14",
"~+	c #AE8624",
"{+	c #865E00",
"]+	c #5E4200",
"^+	c #CD9C00",
"/+	c #CEA200",
"(+	c #AC4A4B",
"_+	c #C65654",
":+	c #C65254",
"<+	c #CC5554",
"[+	c #863D3C",
"}+	c #C04E4C",
"|+	c #602C2C",
"1+	c #8D6100",
"2+	c #815400",
"3+	c #C69A00",
"4+	c #B94E4C",
"5+	c #D25654",
"6+	c #D65A5C",
"7+	c #763634",
"8+	c #9C4244",
"9+	c #7F3A3C",
"0+	c #5C4C0C",
"a+	c #694E00",
"b+	c #BB8B00",
"c+	c #C49500",
"d+	c #6B3234",
"e+	c #DC5E5C",
"f+	c #924244",
"g+	c #923E3C",
"h+	c #916E1A",
"i+	c #744E00",
"j+	c #99721D",
"k+	c #823634",
"l+	c #1A1604",
"m+	c #7A5B14",
"n+	c #BF8B00",
"o+	c #6C5A14",
"p+	c #201C04",
"q+	c #B98600",
"r+	c #C26E3C",
"s+	c #C05254",
"t+	c #9C7800",
"u+	c #AC7D00",
"v+	c #B44300",
"w+	c #AA0003",
"x+	c #72422C",
"y+	c #976C00",
"z+	c #A11900",
"A+	c #A20200",
"B+	c #6E3A2C",
"C+	c #AE6654",
"D+	c #82522C",
"E+	c #926E3C",
"F+	c #9F9267",
"                        . + @ # $ % & *                         ",
"                  = - ; > , > # # $ % ' ) ! ~                   ",
"                - { { ] ^ ^ , > # / ( % ' ) _ :                 ",
"            - { { ] ] ] ] < [ [ [ # / ( ( ' ' : } }             ",
"          - { { ] | ] 1 ] 1 , < < [ 2 / / 3 ' 4 : 5 6           ",
"        7 ; ] ] ] 1 ] ] 1 1 1 1 1 < 2 8 / ( 9 ' 0 a 6 6         ",
"      7 ; ] ] ] ] 1 | | 1 | 1 1 1 1 b b 2 / ( c d a e f g       ",
"      7 { , , ] 1 h i 1 | j k 1 1 < l m n / o p q d a f r       ",
"    ; s , ] < 1 ] n t j u v w 1 | 1 x v t l y v z 0 a A B C     ",
"    s , , < ] 1 1 | D y m E | | 1 1 1 F k k D G 9 4 a H I J K   ",
"  L s , , , < < 1 M k N k w | | | 1 O P k k Q R 9 4 a S T U V   ",
"  s > > 2 < 1 1 1 W x | i k X Y Z ^ `  ...b t +.c R 0 @.#.$.%.  ",
"&.*.*.> , < < < 1 1 | | | X ^ =.-.;.d 9 8 ..i >.,.'.).e !.$.~.{.",
"].*.> 2 > 2 < 1 1 1 1 1 | Y ^.^./.(.n E ).@.)._.q :.<.e T [.~.}.",
"|.G *.2 2 < < < 1 1 | 1 | ^.1.2.3.4.5.O j O o 6.'.7.8.@.9.0.a.b.",
"|.3 G *.2 2 2 < < 1 < 8 + 3.c.c.1.d.e.f.g.h.i.).R <.8.j.k.[.l.m.",
"|.3 3 *.n.2 2 < 1 1 1 ..o.p.q.c.2.r.s.t.u.u.,.v.R <.H z w.x.b.y.",
"z.A.3 3 G n.2 2 2 < 1 8 * /.B.p.3.-.C.p D.g.j ).7.8.S 9.w.a.m.E.",
"F.A.A.3 3 G n.2 2 2 < [ G.(.H.H.e.O I.D.J.K.j.6.L.v.M.k.[.l.N.O.",
"P.:.:.Q.c G ../ / 2 [ 8 8 ;.H.R.J.,.f.S.6.<.'.7.<.S !.$.~.T.y.U.",
"  V.L.:.'.c c G ..n...,.p g.l I.u.u.u W.b '.<.<.v.j.k.x.l.N.X.  ",
"  Y.V.Z.7.7.Q.Q.c i.k y `. +.++.N ++++@+#+W.i.H j.$+0.%+m.&+*+  ",
"  =+Y.H L.L.7.'.q v k ++-+;+>+,+'+>+>+)+ +k !+!.!.$.x.~+y.{+]+  ",
"    ^+/+S 8.<.S N k P (+_+:+<+[+(+:+}+(+|++.N !+[.x.l.m.1+2+    ",
"    =+3+^+S H W.k v  +4+5+6+;+7+;+<+;+8+9+t k 0+T.a.T.&+*+a+    ",
"      b+c+$+M.#+k Q d+<+e+6+(+f+:+<+;+g+7+P >.Q h+m.y.*+i+      ",
"        C C $+j+y Q k+5+e+6+;+(+<+<+4+g+7+l+k y m+j+*+2+        ",
"          C n+C o+k 5+5+6+5+:+}+:+}+>+[+|+k p+m+1+{+*+          ",
"            J q+%.r+5+<+5+5+<+<+s+4+8+9+|+m+y.1+*+i+            ",
"              t+u+v+w+:+s+:+}+4+;+8+9+d+x+X.{+2+a+              ",
"                  y+z+A+;+;+(+>+g+9+d+B+{+2+]+                  ",
"                        C+8+g+k+7+D+E+F+                        "};
