/* XPM */
static char * smil_smile_xpm[] = {
"32 32 264 2",
"  	c None",
". 	c #A9A9AA",
"+ 	c #777672",
"@ 	c #565654",
"# 	c #454544",
"$ 	c #3C3A32",
"% 	c #3E3A24",
"& 	c #666234",
"* 	c #AA9E3C",
"= 	c #E8D254",
"- 	c #E7CE40",
"; 	c #DECB47",
"> 	c #AE9E44",
", 	c #7A7244",
"' 	c #5A563C",
") 	c #6A6A6C",
"! 	c #32322D",
"~ 	c #727274",
"{ 	c #4C4C4A",
"] 	c #333231",
"^ 	c #1C1C0C",
"/ 	c #221E04",
"( 	c #36321C",
"_ 	c #5A4E0C",
": 	c #8E802C",
"< 	c #887A34",
"[ 	c #7D6A14",
"} 	c #4C4620",
"| 	c #6A6654",
"1 	c #524E44",
"2 	c #25220C",
"3 	c #17160D",
"4 	c #16120C",
"5 	c #1D1D1C",
"6 	c #363631",
"7 	c #1F1900",
"8 	c #010100",
"9 	c #020100",
"0 	c #242424",
"a 	c #2B2B2C",
"b 	c #3E3E37",
"c 	c #5D5D5C",
"d 	c #000001",
"e 	c #000000",
"f 	c #030300",
"g 	c #928234",
"h 	c #020200",
"i 	c #514D34",
"j 	c #EDD221",
"k 	c #F9DE34",
"l 	c #665E34",
"m 	c #FAD200",
"n 	c #9C8A1C",
"o 	c #D6BE27",
"p 	c #F9DE24",
"q 	c #F1DA30",
"r 	c #DDC22C",
"s 	c #A28E3C",
"t 	c #CBA200",
"u 	c #090700",
"v 	c #FED500",
"w 	c #F9DA37",
"x 	c #C1B241",
"y 	c #675A0C",
"z 	c #6E6A4C",
"A 	c #FAE233",
"B 	c #C2B450",
"C 	c #CAAA4C",
"D 	c #C19B00",
"E 	c #B28D00",
"F 	c #ECD62C",
"G 	c #D6C64C",
"H 	c #CEC26C",
"I 	c #DAD29C",
"J 	c #E6E2B4",
"K 	c #F2EAAC",
"L 	c #FCEE89",
"M 	c #F8E664",
"N 	c #F8E24A",
"O 	c #E2DA8C",
"P 	c #DED6A4",
"Q 	c #D2C684",
"R 	c #CCBC70",
"S 	c #D2BA4C",
"T 	c #D6B634",
"U 	c #C39500",
"V 	c #FAD000",
"W 	c #FCEC79",
"X 	c #FEF2A5",
"Y 	c #FAEE9E",
"Z 	c #FEF297",
"` 	c #FAE650",
" .	c #F6EA9C",
"..	c #F2E587",
"+.	c #EED55C",
"@.	c #E6CA3C",
"#.	c #DABA2C",
"$.	c #D2B234",
"%.	c #C29B00",
"&.	c #B88900",
"*.	c #ECC400",
"=.	c #F6DA26",
"-.	c #7A764C",
";.	c #525234",
">.	c #AAA26C",
",.	c #DAD27C",
"'.	c #817E71",
").	c #F0E27A",
"!.	c #E4C22C",
"~.	c #CBA62E",
"{.	c #B48C00",
"].	c #977300",
"^.	c #F6D636",
"/.	c #C6BE81",
"(.	c #0A0A04",
"_.	c #FDF5B4",
":.	c #E2DA97",
"<.	c #DFBA2C",
"[.	c #D2B229",
"}.	c #8B6800",
"|.	c #F9CA00",
"1.	c #F5D239",
"2.	c #F5D624",
"3.	c #D2CA84",
"4.	c #FAEA60",
"5.	c #CCC484",
"6.	c #EADE98",
"7.	c #F2DE6C",
"8.	c #E4C222",
"9.	c #D2AE23",
"0.	c #BE9E2C",
"a.	c #AF8000",
"b.	c #EAD674",
"c.	c #F8E884",
"d.	c #E6DE84",
"e.	c #C2BA7C",
"f.	c #C6BA7C",
"g.	c #ECDA6C",
"h.	c #E2BE2E",
"i.	c #C39E32",
"j.	c #B18E28",
"k.	c #B09E68",
"l.	c #DACE7C",
"m.	c #EAE294",
"n.	c #D8CE90",
"o.	c #DECE64",
"p.	c #EAC530",
"q.	c #E1BE23",
"r.	c #C5A221",
"s.	c #BE9A22",
"t.	c #AA924C",
"u.	c #F1CE38",
"v.	c #F2D226",
"w.	c #A89834",
"x.	c #A6922C",
"y.	c #C6AE2C",
"z.	c #E6C624",
"A.	c #DAB721",
"B.	c #CAA22C",
"C.	c #BB961F",
"D.	c #AF8A1C",
"E.	c #A68838",
"F.	c #EAC644",
"G.	c #EECA38",
"H.	c #E6D65C",
"I.	c #FDF6C9",
"J.	c #867610",
"K.	c #60540C",
"L.	c #685E14",
"M.	c #B49A18",
"N.	c #D5B91C",
"O.	c #CDAA21",
"P.	c #C2A244",
"Q.	c #B4961C",
"R.	c #AA8620",
"S.	c #A47E20",
"T.	c #EECA2C",
"U.	c #FEFACC",
"V.	c #C6B438",
"W.	c #7C6E1C",
"X.	c #50460C",
"Y.	c #928117",
"Z.	c #DEBA21",
"`.	c #D6B120",
" +	c #CBA620",
".+	c #C39A1E",
"++	c #B89220",
"@+	c #A9821E",
"#+	c #9A7A34",
"$+	c #EFCE25",
"%+	c #DACA5C",
"&+	c #EEE6B4",
"*+	c #EADA5C",
"=+	c #6F620C",
"-+	c #C6A62C",
";+	c #92763C",
">+	c #E2C654",
",+	c #B8AC6C",
"'+	c #BEB270",
")+	c #A08E1C",
"!+	c #AA8E1C",
"~+	c #A28A14",
"{+	c #CCAF1C",
"]+	c #A27A1E",
"^+	c #9C8240",
"/+	c #DECA74",
"(+	c #EAC624",
"_+	c #EACE1C",
":+	c #A29224",
"<+	c #C3A619",
"[+	c #342D04",
"}+	c #9D761E",
"|+	c #9E8E60",
"1+	c #DBA800",
"2+	c #837211",
"3+	c #463A0C",
"4+	c #6E5E0D",
"5+	c #C49E21",
"6+	c #AE8620",
"7+	c #9C7A24",
"8+	c #8A5D00",
"9+	c #D5A400",
"0+	c #DEB630",
"a+	c #BB9E19",
"b+	c #E8CA24",
"c+	c #9A8214",
"d+	c #CAA221",
"e+	c #916500",
"f+	c #825600",
"g+	c #BE9900",
"h+	c #D9B22F",
"i+	c #544A0E",
"j+	c #D2AA21",
"k+	c #875E00",
"l+	c #5E4200",
"m+	c #CC9B00",
"n+	c #CE9F00",
"o+	c #D6AE2C",
"p+	c #78660E",
"q+	c #8F6100",
"r+	c #815400",
"s+	c #B19200",
"t+	c #C89F00",
"u+	c #A89214",
"v+	c #AE9214",
"w+	c #694E00",
"x+	c #BB8B00",
"y+	c #C29100",
"z+	c #B78E1F",
"A+	c #744E00",
"B+	c #BE9100",
"C+	c #B28E1C",
"D+	c #BB8600",
"E+	c #C29624",
"F+	c #9C7400",
"G+	c #AA7E1C",
"H+	c #644D00",
"I+	c #A47600",
"J+	c #9F7200",
"K+	c #966E1C",
"L+	c #9A721C",
"M+	c #967321",
"N+	c #9F9267",
"O+	c #8E7700",
"            . + @ # $ % & * = - - ; > , ' @ @ @ ) !             ",
"        ~ { ~ . + ] ^ ^ / ( _ : < [ } | 1 2 3 4 5 6 # ) 7       ",
"      8 9 0 ) . + ] 5 5 5 0 0 a a a b ~ c a 5 5 5 5 0 d e       ",
"      8 f 0 6 { $ 0 5 5 0 0 a : g a 0 6 a 0 0 0 0 a a   h       ",
"      8   } 0 5 0 5 0 0 0 a i j k ' 5 5 5 0 0 0 0 a l   8       ",
"      7 m n } 4 5 5 5 0 a ] o p q r b 0 0 5 0 0 a a s t u       ",
"      m v w x y 6 0 ] { z * A p p p B i a 0 a 6 i < C D E       ",
"      v v k w F G H I J K L M A p k N O P I Q R S o T t U       ",
"    V v w k k k k W X Y X X Z ` A M L Z Y  ...+.@.r #.$.%.&.    ",
"  *.V w w w =.w N Y P -.;.>.Z W ` W ,., i '.P ).= !.#.$.~.{.].  ",
"  V V ^.w w p p ` Z /.3 (.i _.L M L /.3 (.b :...+.!.<.[.~.{.}.  ",
"  |.1.^.2.w =.p k L 3.$ 3 -.Z L 4...5.$ 3 l 6.7.+.8.o 9.~.0.a.  ",
"b.1.^.^.=.=.=.p p M ..Q /.:.Z c.d.d.O /.e.f.6.g.- !.h.[.~.i.j.k.",
"+.1.1.^.2.=.=.p p A 4.W L L L L ).l.3.:.m.n.o.- p.q.#.[.r.s.j.t.",
"u.1.v.^.2.2.2.p p p p p A L X _.K l.x w.> x.y.r z.q.A.[.B.C.D.E.",
"F.G.u.1.v.2.=.=.=.p p q H.Y I.I.Y O y.J.K.L.M.N.q.q.A.O.P.Q.R.S.",
"G.G.T.v.1.v.2.=.=.p p F ,.K I.U._.m.V.W.X.X.Y.N.o Z.`. +.+++@+#+",
"F.p.G.$+j v.F 2.=.F =.F %+m.J &+ .*+Y.y =+K.n A.q.A.9.-+s.E.@+;+",
">+p.p.p.$+$+v.2.=.=.=.F ; H ,+'+x )+_ =+!+~+{+q.Z.A. +r.C.R.]+^+",
"/+h.h.p.(+_+o _+j 2.j q F ; x w.:+Y.J.<+o N.q.[ [+!+ +s.j.S.}+|+",
"  1+<.!.8.(+q.2+{+2.j 2.=.F - o N.N.r _+_+)+3+/ 4+O.5+++6+7+8+  ",
"  9+1+0+q.8.z.{+W.4+a+b+_+2.F j _+_+N.c+y 4 [+y a+d+s.j.@+e+f+  ",
"  g+9+h+Z.Z.q.8.8.n y X.i+y y K.K.i+[+2 [+i+[ j+ +.+++R.7+k+l+  ",
"    m+n+o+0+Z.q.8.8.(+<+2+p+p+=+4+4+[ p+[ M. + +a+++D.S.q+r+    ",
"    s+m+t+9.`.A.Z.q.8.8.8.A.{+Q.u+v+5+r.9.j+r..+++6+S.q+f+w+    ",
"      x+y+ +j+`.`.A.A.A.Z.Z.Z.A.A.`.9.9. +5+.+z+D.S.}+f+A+      ",
"        &.B+d+ +j+j+9.9.`.9.`.9.j+O.d+d+.+++C+R.S.}+k+r+        ",
"          &.D+B+d+d+d+d+ + +d+d+5+5+s.++C+D.@+]+e+f+r+          ",
"            &.D+D+E+.+E+.+.+C.E+++z+C+D.R.]+}+8+f+A+            ",
"              F+a.a.a.z+z+z+z+D.D.R.G+]+}+q+k+r+H+              ",
"                  ].I+J+6+@+G+]+]+}+}+K+k+r+w+                  ",
"                        > E.@+}+L+M+^+N+O+                      "};
